<svg width="700" height="552" viewBox="0 0 700 552" fill="none" xmlns="http://www.w3.org/2000/svg">
<path d="M200 0L286.603 50V150L200 200L113.397 150V50L200 0Z" fill="#228FFC"/>
<path d="M600 0L686.603 50V150L600 200L513.397 150V50L600 0Z" fill="#228FFC"/>
<path d="M400 0L486.603 50V150L400 200L313.397 150V50L400 0Z" fill="#228FFC"/>
<path d="M200 352L286.603 402V502L200 552L113.397 502V402L200 352Z" fill="#228FFC"/>
<path d="M600 352L686.603 402V502L600 552L513.397 502V402L600 352Z" fill="#228FFC"/>
<path d="M400 352L486.603 402V502L400 552L313.397 502V402L400 352Z" fill="#228FFC"/>
<path d="M100 176L186.603 226V326L100 376L13.3975 326V226L100 176Z" fill="#228FFC"/>
<path d="M500 176L586.603 226V326L500 376L413.397 326V226L500 176Z" fill="#228FFC"/>
<path d="M300 176L386.603 226V326L300 376L213.397 326V226L300 176Z" fill="#228FFC"/>
</svg>
