<svg width="101" height="96" viewBox="0 0 101 96" fill="none" xmlns="http://www.w3.org/2000/svg">
<path d="M10.2752 24.8285H15.0482V73.9506H47.067V24.8285H51.9063V73.9506H56.0164V82.9662H51.1771V78.8562H10.2752V24.8285Z" fill="#228FFC"/>
<path d="M10.2752 24.8285V22.0664H7.51304V24.8285H10.2752ZM15.0482 24.8285H17.8103V22.0664H15.0482V24.8285ZM15.0482 73.9506H12.286V76.7127H15.0482V73.9506ZM47.067 73.9506V76.7127H49.8292V73.9506H47.067ZM47.067 24.8285V22.0664H44.3049V24.8285H47.067ZM51.9063 24.8285H54.6684V22.0664H51.9063V24.8285ZM51.9063 73.9506H49.1441V76.7127H51.9063V73.9506ZM56.0164 73.9506H58.7785V71.1884H56.0164V73.9506ZM56.0164 82.9662V85.7284H58.7785V82.9662H56.0164ZM51.1771 82.9662H48.4149V85.7284H51.1771V82.9662ZM51.1771 78.8562H53.9392V76.094H51.1771V78.8562ZM10.2752 78.8562H7.51304V81.6183H10.2752V78.8562ZM10.2752 27.5907H15.0482V22.0664H10.2752V27.5907ZM12.286 24.8285V73.9506H17.8103V24.8285H12.286ZM15.0482 76.7127H47.067V71.1884H15.0482V76.7127ZM49.8292 73.9506V24.8285H44.3049V73.9506H49.8292ZM47.067 27.5907H51.9063V22.0664H47.067V27.5907ZM49.1441 24.8285V73.9506H54.6684V24.8285H49.1441ZM51.9063 76.7127H56.0164V71.1884H51.9063V76.7127ZM53.2542 73.9506V82.9662H58.7785V73.9506H53.2542ZM56.0164 80.2041H51.1771V85.7284H56.0164V80.2041ZM53.9392 82.9662V78.8562H48.4149V82.9662H53.9392ZM51.1771 76.094H10.2752V81.6183H51.1771V76.094ZM13.0373 78.8562V24.8285H7.51304V78.8562H13.0373Z" fill="#228FFC"/>
<path d="M70.4679 65.7967H79.3509V74.6798H70.4679V65.7967Z" fill="#228FFC"/>
<path d="M70.4679 65.7967V63.0346H67.7057V65.7967H70.4679ZM79.3509 65.7967H82.1131V63.0346H79.3509V65.7967ZM79.3509 74.6798V77.4419H82.1131V74.6798H79.3509ZM70.4679 74.6798H67.7057V77.4419H70.4679V74.6798ZM70.4679 68.5589H79.3509V63.0346H70.4679V68.5589ZM76.5888 65.7967V74.6798H82.1131V65.7967H76.5888ZM79.3509 71.9176H70.4679V77.4419H79.3509V71.9176ZM73.23 74.6798V65.7967H67.7057V74.6798H73.23Z" fill="#228FFC"/>
</svg>
