<svg width="161" height="161" viewBox="0 0 161 161" fill="none" xmlns="http://www.w3.org/2000/svg">
<rect x="56.2996" y="63.7203" width="10" height="60" rx="3" transform="rotate(20 56.2996 63.7203)" fill="#E9E9E9"/>
<rect x="34.0856" y="66.2769" width="10" height="30" rx="3" transform="rotate(-70 34.0856 66.2769)" fill="#E9E9E9"/>
<rect x="39.9794" y="70.5504" width="10" height="30" rx="3" transform="rotate(20 39.9794 70.5504)" fill="#E9E9E9"/>
<circle cx="38.7667" cy="126.51" r="7.5" transform="rotate(20 38.7667 126.51)" stroke="#E9E9E9" stroke-width="5"/>
<rect x="63.7205" y="104.732" width="10" height="60" rx="3" transform="rotate(-70 63.7205 104.732)" fill="#E9E9E9"/>
<rect x="66.277" y="126.946" width="10" height="30" rx="3" transform="rotate(-160 66.277 126.946)" fill="#E9E9E9"/>
<rect x="70.5504" y="121.052" width="10" height="30" rx="3" transform="rotate(-70 70.5504 121.052)" fill="#E9E9E9"/>
<circle cx="126.51" cy="122.265" r="7.5" transform="rotate(-70 126.51 122.265)" stroke="#E9E9E9" stroke-width="5"/>
<rect x="104.732" y="97.3108" width="10" height="60" rx="3" transform="rotate(-160 104.732 97.3108)" fill="#E9E9E9"/>
<rect x="126.946" y="94.7543" width="10" height="30" rx="3" transform="rotate(110 126.946 94.7543)" fill="#E9E9E9"/>
<rect x="121.052" y="90.4808" width="10" height="30" rx="3" transform="rotate(-160 121.052 90.4808)" fill="#E9E9E9"/>
<circle cx="122.265" cy="34.5207" r="7.5" transform="rotate(-160 122.265 34.5207)" stroke="#E9E9E9" stroke-width="5"/>
<rect x="97.3109" y="56.2995" width="10" height="60" rx="3" transform="rotate(110 97.3109 56.2995)" fill="#E9E9E9"/>
<rect x="94.7544" y="34.0854" width="10" height="30" rx="3" transform="rotate(20 94.7544 34.0854)" fill="#E9E9E9"/>
<rect x="90.481" y="39.9793" width="10" height="30" rx="3" transform="rotate(110 90.481 39.9793)" fill="#E9E9E9"/>
<circle cx="34.5209" cy="38.7667" r="7.5" transform="rotate(110 34.5209 38.7667)" stroke="#E9E9E9" stroke-width="5"/>
<path d="M58.2752 53.8285H63.0482V102.951H95.067V53.8285H99.9063V102.951H104.016V111.966H99.1771V107.856H58.2752V53.8285Z" fill="#228FFC"/>
<path d="M58.2752 53.8285V51.0664H55.513V53.8285H58.2752ZM63.0482 53.8285H65.8103V51.0664H63.0482V53.8285ZM63.0482 102.951H60.286V105.713H63.0482V102.951ZM95.067 102.951V105.713H97.8292V102.951H95.067ZM95.067 53.8285V51.0664H92.3049V53.8285H95.067ZM99.9063 53.8285H102.668V51.0664H99.9063V53.8285ZM99.9063 102.951H97.1441V105.713H99.9063V102.951ZM104.016 102.951H106.779V100.188H104.016V102.951ZM104.016 111.966V114.728H106.779V111.966H104.016ZM99.1771 111.966H96.4149V114.728H99.1771V111.966ZM99.1771 107.856H101.939V105.094H99.1771V107.856ZM58.2752 107.856H55.513V110.618H58.2752V107.856ZM58.2752 56.5907H63.0482V51.0664H58.2752V56.5907ZM60.286 53.8285V102.951H65.8103V53.8285H60.286ZM63.0482 105.713H95.067V100.188H63.0482V105.713ZM97.8292 102.951V53.8285H92.3049V102.951H97.8292ZM95.067 56.5907H99.9063V51.0664H95.067V56.5907ZM97.1441 53.8285V102.951H102.668V53.8285H97.1441ZM99.9063 105.713H104.016V100.188H99.9063V105.713ZM101.254 102.951V111.966H106.779V102.951H101.254ZM104.016 109.204H99.1771V114.728H104.016V109.204ZM101.939 111.966V107.856H96.4149V111.966H101.939ZM99.1771 105.094H58.2752V110.618H99.1771V105.094ZM61.0373 107.856V53.8285H55.513V107.856H61.0373Z" fill="#228FFC"/>
<path d="M65 46L70 50V92" stroke="#228FFC"/>
<path d="M102 46L107 50V92" stroke="#228FFC"/>
<path d="M51 107V112L56.5 116H92V118L96 121H107L111 118V100L108 96" stroke="#228FFC"/>
<path d="M68 55V51L64 48H57L53 51V111L57 114" stroke="#228FFC"/>
<path d="M105 55V51L101 48H94L90 51V96H82" stroke="#228FFC"/>
</svg>
